<svg id="Layer_1" data-name="Layer 1" xmlns="http://www.w3.org/2000/svg" version="1.1" xmlns:xlink="http://www.w3.org/1999/xlink" viewBox="0 0 300 300">
  <defs>
    <style>
      .cls-1 {
        fill: url(#linear-gradient);
      }

      .cls-1, .cls-2 {
        stroke-width: 0px;
      }

      .cls-2 {
        fill: #fff;
      }
    </style>
    <linearGradient id="linear-gradient" x1="212.59" y1="-50.78" x2="75.84" y2="387.91" gradientUnits="userSpaceOnUse">
      <stop offset="0" stop-color="#72be44"/>
      <stop offset="1" stop-color="#002a27"/>
    </linearGradient>
  </defs>
  <rect class="cls-1" x="0" width="300" height="300" rx="64.82" ry="64.82"/>
  <g>
    <path class="cls-2" d="M70.12,173.78v46.07h0c-19.87,0-35.98-16.11-35.98-35.98v-77.66c0-14.4,11.67-26.07,26.07-26.07h75.97c0,16.5-13.38,29.88-29.88,29.88h-18.61c-9.71,0-17.58,7.87-17.58,17.58v5.78h56.81c0,16.62-13.47,30.09-30.09,30.09h-16.4c-5.7,0-10.32,4.62-10.32,10.32Z"/>
    <g>
      <path class="cls-2" d="M192.97,201.45h18.55l-6.93,15.47c-.8,1.79-2.58,2.94-4.54,2.94h-3.5l-6.34-14.14c-.9-2,.57-4.26,2.76-4.26Z"/>
      <path class="cls-2" d="M180.51,161.14h49.06l-6.64,14.83c-3.02,6.74-9.71,11.07-17.09,11.07h-24l-7.4-16.53c-1.97-4.4,1.25-9.37,6.07-9.37Z"/>
      <path class="cls-2" d="M162.44,120.82h85.2l-6.65,14.84c-3.02,6.74-9.71,11.07-17.09,11.07h-60.12l-7.41-16.53c-1.97-4.4,1.25-9.38,6.07-9.38Z"/>
      <path class="cls-2" d="M265.86,80.14l-6.81,15.2c-3.02,6.74-9.71,11.07-17.09,11.07h-96.25l-5.03-11.23c-3.16-7.06,2-15.03,9.74-15.03h115.44Z"/>
    </g>
  </g>
</svg>